<svg width="16" height="16" viewBox="0 0 16 16" fill="none" xmlns="http://www.w3.org/2000/svg">
<g clip-path="url(#clip0_778_928)">
<rect width="16" height="16" fill="#160705"/>
<path d="M8.40013 2C8.92771 2 9.44708 2.06014 9.95825 2.18041C10.4722 2.29796 10.8548 2.4155 11.1063 2.53577L11.4836 2.71619L10.4448 4.79367C9.7259 4.41098 9.04525 4.21963 8.40013 4.21963C8.04204 4.21963 7.78919 4.26064 7.64021 4.33991C7.48987 4.41645 7.41606 4.56269 7.41606 4.77727C7.41606 4.82511 7.42153 4.87295 7.43246 4.91942C7.44613 4.96725 7.47073 5.01236 7.50353 5.05609C7.53907 5.0971 7.57187 5.13127 7.60194 5.15997C7.63474 5.19004 7.68531 5.22284 7.75502 5.25838C7.82746 5.29528 7.8835 5.32261 7.9245 5.34038C7.96824 5.35952 8.03657 5.38685 8.13225 5.42239C8.22655 5.45519 8.29763 5.48116 8.34546 5.49893C8.39603 5.51806 8.47804 5.5454 8.59148 5.58093C8.70356 5.61784 8.78966 5.64107 8.84843 5.65201C9.22019 5.76135 9.54275 5.88162 9.81611 6.01283C10.0922 6.14404 10.3819 6.32309 10.6854 6.5486C10.9915 6.77549 11.228 7.06114 11.3961 7.40694C11.5628 7.75409 11.6476 8.14909 11.6476 8.59329C11.6476 10.6817 10.1947 11.7259 7.29032 11.7259C6.63427 11.7259 6.01102 11.6248 5.42058 11.4252C4.83013 11.2216 4.40097 11.0179 4.13582 10.8129L3.74219 10.4904L5.03242 8.3254C5.13082 8.40604 5.25657 8.50445 5.40964 8.62063C5.56546 8.73407 5.84701 8.88851 6.25157 9.08533C6.65887 9.28214 7.0115 9.38055 7.30672 9.38055C7.9655 9.38055 8.29626 9.1605 8.29626 8.71903C8.29626 8.51539 8.21152 8.35684 8.04477 8.2434C7.87666 8.13132 7.59237 8.00285 7.19191 7.8607C6.79008 7.71583 6.47709 7.58188 6.25157 7.46161C5.6789 7.16365 5.22513 6.82606 4.89027 6.4502C4.55405 6.0757 4.3873 5.57547 4.3873 4.95222C4.3873 4.02282 4.74813 3.2998 5.46978 2.78179C6.19417 2.26105 7.17141 2 8.40013 2Z" fill="white"/>
<path d="M3.04702 12.9324C3.35173 12.9378 3.6549 12.9391 3.95961 12.9328C4.25993 12.9267 4.56003 12.9187 4.86035 12.9138C5.46537 12.9042 6.07018 12.9037 6.67521 12.9098C7.88109 12.922 9.08719 12.962 10.2902 13.0433C10.9692 13.0892 11.6474 13.1458 12.3244 13.213C12.4113 13.2216 12.486 13.1355 12.486 13.058C12.486 12.9684 12.4116 12.9103 12.3244 12.9031C11.1194 12.805 9.91131 12.7397 8.70258 12.7056C7.49713 12.6715 6.29103 12.6722 5.08558 12.7088C4.74773 12.7189 4.40965 12.7294 4.07223 12.7482C3.72844 12.7673 3.38861 12.7968 3.04702 12.8389C2.98643 12.8463 2.98226 12.9313 3.04702 12.9324Z" fill="#DF3821"/>
<g opacity="0.3" filter="url(#filter0_f_778_928)">
<path d="M15.8015 7C15.8015 11.4183 12.4881 15 8.40075 15C4.31343 15 1 11.4183 1 7C1 2.58172 4.31343 -1 8.40075 -1C12.4881 -1 15.8015 2.58172 15.8015 7Z" fill="#CE4730" fill-opacity="0.8"/>
</g>
</g>
<defs>
<filter id="filter0_f_778_928" x="-453" y="-455" width="922.801" height="924" filterUnits="userSpaceOnUse" color-interpolation-filters="sRGB">
<feFlood flood-opacity="0" result="BackgroundImageFix"/>
<feBlend mode="normal" in="SourceGraphic" in2="BackgroundImageFix" result="shape"/>
<feGaussianBlur stdDeviation="227" result="effect1_foregroundBlur_778_928"/>
</filter>
<clipPath id="clip0_778_928">
<rect width="16" height="16" fill="white"/>
</clipPath>
</defs>
</svg>
